# xmcd
#
# Track frame offsets:
#	150
#	16983
#	30247
#	47069
#	62923
#
# Disc length: 1066 seconds
# Revision: 1
# Processed by: cddbd v1.5.2PL0 Copyright (c) Steve Scherf et al.
# Submitted via: dBpowerAMP V12.0
#
DISCID=35042805
DTITLE=Luke Austen - No Stranger to The Rain
DYEAR=1900
DGENRE=Country
TTITLE0=I'm No Stranger to The Rain
TTITLE1=Honky Tonk Dreamin
TTITLE2=Fallin Down
TTITLE3=Meant To Be
TTITLE4=When it Rains it Pours
EXTD=
EXTT0=
EXTT1=
EXTT2=
EXTT3=
EXTT4=
PLAYORDER=
